# xmcd CD database file
#
# Track frame offsets:
#	150
#	15355
#	32814
#
# Disc length: 595 seconds
#
# Revision: 0
# Processed by: cddbd v1.5.1PL2 Copyright (c) Steve Scherf et al.
# Submitted via: CDex 1.60beta1
#
DISCID=16025103
DTITLE=matiere - Shoot My HEART!?
DYEAR=1900
DGENRE=未分類 (日本)
TTITLE0=Xevious Main Theme (Heartful House Mix)
TTITLE1=King's Knight Field (Kanno Cannon Mix)
TTITLE2=King's Knight Final (7 Trance Mix)
EXTD=
EXTT0=
EXTT1=
EXTT2=
PLAYORDER=
